<?xml version="1.0" encoding="UTF-8" standalone="no"?>
<!-- Created with Inkscape (http://www.inkscape.org/) -->

<svg
   xmlns:dc="http://purl.org/dc/elements/1.1/"
   xmlns:cc="http://creativecommons.org/ns#"
   xmlns:rdf="http://www.w3.org/1999/02/22-rdf-syntax-ns#"
   xmlns:svg="http://www.w3.org/2000/svg"
   xmlns="http://www.w3.org/2000/svg"
   xmlns:sodipodi="http://sodipodi.sourceforge.net/DTD/sodipodi-0.dtd"
   xmlns:inkscape="http://www.inkscape.org/namespaces/inkscape"
   version="1.1"
   width="17.019423"
   height="18"
   id="svg2"
   xml:space="preserve"
   inkscape:version="0.48.2 r9819"
   sodipodi:docname="icon.svg"><sodipodi:namedview
     pagecolor="#ffffff"
     bordercolor="#666666"
     borderopacity="1"
     objecttolerance="10"
     gridtolerance="10"
     guidetolerance="10"
     inkscape:pageopacity="0"
     inkscape:pageshadow="2"
     inkscape:window-width="1280"
     inkscape:window-height="671"
     id="namedview3118"
     showgrid="false"
     inkscape:zoom="5.4334269"
     inkscape:cx="55.780791"
     inkscape:cy="32.02702"
     inkscape:window-x="0"
     inkscape:window-y="0"
     inkscape:window-maximized="1"
     inkscape:current-layer="svg2"
     fit-margin-left="1"
     fit-margin-top="1"
     fit-margin-right="1"
     fit-margin-bottom="1" /><metadata
     id="metadata8"><rdf:RDF><cc:Work
         rdf:about=""><dc:format>image/svg+xml</dc:format><dc:type
           rdf:resource="http://purl.org/dc/dcmitype/StillImage" /><dc:title></dc:title></cc:Work></rdf:RDF></metadata><defs
     id="defs6" /><g
     transform="matrix(0.27543562,0,0,-0.27543562,1,17)"
     id="g10"><g
       transform="scale(0.1,0.1)"
       id="g12"><path
         d="m 251.328,231.758 42.6172,0 0,117.43 -42.6172,0 0,-117.43 z"
         inkscape:connector-curvature="0"
         id="path14"
         style="fill:#f6871b;fill-opacity:1;fill-rule:nonzero;stroke:none" /><path
         d="m 378.328,406.309 0,-141.657 c 0,-40.976 -11.25,-47.507 -58.207,-75.109 L 89.2461,49.9219 C 79.3125,44.0664 70.8477,41.0234 63.957,41.0234 c -0.4062,0 -0.8632,0.0743 -1.2656,0.0743 -13.9375,0.8398 -20.6797,11.6054 -20.6328,33.0468 l 0,434.2815 c 0,11.504 2.3867,19.332 7.5117,24.605 4.2539,4.332 9.5742,6.539 15.7578,6.539 7.0938,0 15.2578,-2.867 24.2227,-8.547 l 51.0352,-32.152 c 24.684,-15.633 35.477,-22.351 40.039,-25.234 l 0,48.343 c -5.98,3.782 -21.992,13.942 -69.434,44.168 -15.7847,10.032 -31.1168,14.75 -48.1441,14.75 -18.5508,0 -34.9688,-7.445 -46.2188,-21.031 C 5.77734,546.637 0,528.875 0,508.426 L 0,72.5469 C 0,51.0586 5.87891,32.7617 16.9766,19.8633 28.1797,6.94141 43.9414,0.046875 62.6172,0 l 0.1016,0 c 15.375,0 31.5429,4.94141 48.0192,14.75 l 219.805,133.105 10.996,6.489 c 48.852,28.633 78.348,45.918 78.399,110.261 l 0,141.704 -41.61,0"
         inkscape:connector-curvature="0"
         id="path16"
         style="fill:#2e9bb7;fill-opacity:1;fill-rule:nonzero;stroke:none" /><path
         d="m 166.992,174.668 0,141.602 c 0,41.023 11.153,47.562 58.18,75.109 L 456.02,530.977 c 9.937,5.882 18.453,8.871 25.242,8.871 0.453,0 0.965,0 1.394,-0.047 13.91,-0.793 20.602,-11.61 20.602,-33.074 l 0,-434.2036 c 0,-11.5273 -2.379,-19.3359 -7.574,-24.6562 -4.215,-4.3086 -9.532,-6.5156 -15.664,-6.5156 -7.122,0 -15.332,2.8906 -24.297,8.5703 l -50.938,32.1562 c -24.836,15.5821 -35.476,22.3709 -40.09,25.2109 l 0,-48.3007 C 370.676,55.2148 386.621,45.0039 434.082,14.8008 449.941,4.71484 465.199,0 482.273,0 c 18.497,0 34.918,7.5 46.274,21.0859 10.949,13.1719 16.75,30.8868 16.75,51.4375 l 0,435.8516 c 0,21.512 -5.801,39.707 -17.055,52.68 -11.097,12.949 -26.859,19.82 -45.586,19.843 l 0,0 c -15.328,0 -31.547,-4.964 -48.066,-14.699 L 214.73,433.063 203.789,426.629 c -48.855,-28.66 -78.328,-46.024 -78.434,-110.305 l 0,-141.656 41.637,0"
         inkscape:connector-curvature="0"
         id="path18"
         style="fill:#2e9bb7;fill-opacity:1;fill-rule:nonzero;stroke:none" /></g></g></svg>